<?xml version="1.0" encoding="utf-8"?>
<!-- Generator: Adobe Illustrator 26.3.1, SVG Export Plug-In . SVG Version: 6.00 Build 0)  -->
<svg version="1.1" id="Layer_1" xmlns="http://www.w3.org/2000/svg" xmlns:xlink="http://www.w3.org/1999/xlink" x="0px" y="0px"
	 viewBox="0 0 221 226" style="enable-background:new 0 0 221 226;" xml:space="preserve">
<style type="text/css">
	.st0{fill:none;stroke:#000000;stroke-miterlimit:10;}
</style>
<g>
	<path class="st0" d="M110.61,116.34c1.91-13.03,8.26-18.53,19.16-17.49c9.71,0.93,16.09,8.7,15.89,19.34
		c-0.34,18.17-16.32,33.64-34.93,33.83c-19.34,0.19-35.38-14.61-36.36-33.54C73,91.87,91.35,68.86,117.89,63.9
		c26.27-4.91,52.06,10.08,60.43,35.12c11.1,33.24-9.64,71.7-45.58,84.55c-35.17,12.57-76.18-6.31-89.06-41.01
		C26.76,96.99,54.15,40.6,101.81,25.11c14.51-4.71,30.18-5.88,43.41-8.31c-32-13.52-76.78-5.91-104.61,20.15
		C8.29,67.21-2.32,104.68,9.85,146.99c13.98,48.6,58.37,77.9,109.41,74.62c47.72-3.07,87-39.17,95.78-88.01
		c8.34-46.4-22.16-90.55-65.95-95.48c-49.04-5.52-88.58,27.06-90.71,74.75c-1.35,30.24,19.63,53.87,49.85,56.14
		c27.68,2.08,52.8-21.08,54.8-50.51c1.35-19.89-14.46-36.77-34.55-36.9c-20.15-0.14-36.05,15.88-34.95,35.21
		c0.55,9.71,7.06,16.1,16.49,16.19c9.98,0.1,15.3-5.17,15.73-15.87C120.96,116.87,116.21,116.62,110.61,116.34z"/>
	<path class="st0" d="M110.61,116.34c5.59,0.29,10.35,0.53,15.1,0.77c-0.42,10.7-5.74,15.97-15.73,15.87
		c-9.43-0.09-15.93-6.48-16.49-16.19c-1.1-19.33,14.8-35.35,34.95-35.21c20.09,0.14,35.9,17.02,34.55,36.9
		c-2,29.43-27.12,52.59-54.8,50.51c-30.22-2.27-51.2-25.89-49.85-56.14c2.13-47.68,41.67-80.27,90.71-74.75
		c43.79,4.93,74.29,49.08,65.95,95.48c-8.78,48.85-48.05,84.94-95.78,88.01c-51.03,3.29-95.42-26.01-109.41-74.62
		C-2.36,104.66,8.25,67.2,40.57,36.93C68.4,10.87,113.18,3.26,145.18,16.78c-13.23,2.44-28.89,3.6-43.41,8.31
		C54.11,40.58,26.72,96.97,43.64,142.54c12.88,34.7,53.89,53.58,89.06,41.01c35.95-12.85,56.68-51.31,45.58-84.55
		c-8.36-25.04-34.16-40.03-60.43-35.12c-26.54,4.96-44.88,27.97-43.52,54.58c0.97,18.93,17.01,33.73,36.36,33.54
		c18.61-0.18,34.59-15.65,34.93-33.83c0.2-10.64-6.18-18.42-15.89-19.34C118.87,97.81,112.53,103.31,110.61,116.34z"/>
</g>
</svg>
