<?xml version="1.0" encoding="utf-8"?>
<!-- Generator: Adobe Illustrator 26.3.1, SVG Export Plug-In . SVG Version: 6.00 Build 0)  -->
<svg version="1.1" id="Layer_1" xmlns="http://www.w3.org/2000/svg" xmlns:xlink="http://www.w3.org/1999/xlink" x="0px" y="0px"
	 viewBox="0 0 213 112" style="enable-background:new 0 0 213 112;" xml:space="preserve">
<style type="text/css">
	.st0{fill:#E54A67;}
	.st1{fill:#F09F95;}
	.st2{fill:#F8CEAF;}
	.st3{fill:#E76577;}
	.st4{fill:#FAE4BC;}
	.st5{fill:#F3BCA5;}
	.st6{fill:#EA7F86;}
	.st7{fill:#E8747F;}
	.st8{fill:#F0AA9C;}
	.st9{fill:#EC8D8C;}
	.st10{fill:#E45B70;}
	.st11{fill:#EA7A84;}
	.st12{fill:#EAAE9E;}
</style>
<g>
	<path class="st0" d="M25.6,57.6c-1.4-2.5-1.3-6-4.3-8.1c0,9.9,0,19.2,0,28.6c0,2.3,0.4,5.1-3.1,4.9c-3.5-0.1-2.4-3-2.5-4.9
		c-0.4-15.2-0.7-30.5-0.9-45.7c0-1.8-1-4.2,2.2-4.6c2.7-0.4,3.9,0.9,4.7,3.2c3.4,9,7,17.9,10.4,26.8c-0.4,1.4,0.5,3.6-1.9,4
		c-1.6,0.2-2-1.4-2.6-2.5C27.4,58.4,26.6,57.9,25.6,57.6z"/>
	<path class="st1" d="M105.8,58.7c5.2-0.3,6.3-4.1,6.9-8.2c1.1-7.1,0.9-14.2,1-21.3c0-1.9-0.6-4.2,2.6-4.3c3.4-0.1,3.1,2.1,3.1,4.3
		c0,12.6,0,25.2,0,37.8c0,1.3,0,2.7-0.2,4c-0.8,5.1-2.1,10.1-7.7,11.6c-5.7,1.6-10.2-1.3-14.2-5.2c-1.4-1.4-1.4-2.9-0.2-4.4
		c1.7-2,2.9-0.6,4.1,0.5c1.1,1,2.1,2.2,3.4,2.9c4,2.3,6.9,1.1,8.1-3.4c0.4-1.4,0.6-2.9,0.8-4.4c0.6-4.2,0.8-7.8-5.2-4.8
		c-1.2,0.6-2.6,0.2-3.9-0.3C103.2,60.2,103.3,59.8,105.8,58.7z"/>
	<path class="st2" d="M184.4,31c-5.9-0.7-8.5,0.9-11.3,7.1c-3.8,8.5-5,17.5-5.1,26.6c0,4.7,0.1,9.3,0.2,14c0,2.1,0.2,4.2-2.7,4.4
		c-2.8,0.1-3.1-1.7-3.1-4c-0.2-16.6-0.6-33.2-0.9-49.8c0-2.1-0.6-4.6,2.8-4.6c3.3,0,2.9,2.5,2.9,4.6c0,2.5,0,5,0,8.5
		c3.7-5.8,6.2-11.7,13.1-12.7C180.8,27.7,184.8,27.9,184.4,31z"/>
	<path class="st3" d="M40.6,48.9c1.8-8,6-15.2,8.4-22.9c0.6-1.8,2.4-1.6,3.8-1.3c1.8,0.3,2.3,1.8,2.3,3.4c0,4.1-0.2,8.3-0.3,12.4
		c-0.2,12.6-0.3,25.2-0.5,37.8c0,2.4,0.2,5-3.3,4.9c-3.5-0.1-2.4-3-2.4-4.9c-0.1-10.8,0-21.5,0-32.9c-2.6,2.3-3.7,4.7-4.3,7.5
		C41.8,52.7,39.7,52.2,40.6,48.9z"/>
	<path class="st4" d="M184.4,31c-1.9-1.6-5.7-1.9-3.9-5.9c11.8,3.6,15.7,8.6,16.8,23.4c0.7,9.9,0.7,19.9,1,29.8
		c0.1,2.1,0.2,4.2-2.7,4.3c-3.3,0.1-3-2.2-3-4.4c-0.1-12.1,0.7-24.2-2.1-36.1C189.4,37.9,187.9,33.9,184.4,31z"/>
	<path class="st5" d="M135.5,26c5.2-2.3,10.1-1.3,14,2.7c8.1,8.4,8.4,25.6,0.4,34.2c-3.6,3.9-7.9,5.9-13.3,3.8
		c-1.5-1.8-1-3.5,0.3-5.1c0.4-0.3,0.7-0.7,1.2-0.9c9.6-4,13.1-14.2,8.3-23.5c-1.7-3.2-4.5-4.8-7.7-5.9C136,30.5,134.1,29.2,135.5,26
		z"/>
	<path class="st6" d="M72.6,28.9c0-2.4,0.7-4.4,3.5-4.4c2.5,0,2.8,2.1,3.2,3.8c3,11.7,5.9,23.4,8.9,35.1c0.5,2,0.3,3.7-2.1,4.2
		c-2.4,0.5-3.2-1-3.5-3c-0.3-1.9-0.7-3.9-1-5.8c-0.4-2.6-1.6-4-4.6-3.5c-1.9,0.3-4.1,0.5-4.9-2.1c-0.8-2.8,1.5-3.2,3.2-4.1
		c0.6-0.3,0.9-1,1-1.6c-0.1-3.1-1.6-5.9-1.3-9.1C76.3,34.7,72.3,32.3,72.6,28.9z"/>
	<path class="st7" d="M72.6,28.9c4.8,1.4,4.1,5.3,4,8.9c-2,2.2-1.8,5.2-2.1,7.8c-0.5,3.8,2.8,1.7,4.4,2.3c1.4,3-0.7,2.8-2.6,3
		c-1.2,0.1-3.1-0.5-3.2,1.3c-0.1,2,1.6,2.7,3.4,2.6c2.8-0.1,5.5-0.1,5,3.9c-1.8-5.4-6.3-2.4-9.6-3c-3.1-0.6-3.1,2.2-3.6,4.2
		c-0.3,1.1-0.6,2.2-1.1,3.3c-0.8,1.8-0.6,4.7-4,3.6c-3.3-1-2.1-3.1-1.4-5.2c2.3-7.4,4.5-14.8,7-22.1C70,36,70.2,32,72.6,28.9z"/>
	<path class="st8" d="M137.5,61.8c-0.3,1.7-0.7,3.3-1,5c-9.7-2.4-13.4-16.8-11.5-25.7c1.4-6.4,3.4-12.5,10.5-15
		c0.3,2.5,1.6,3.9,4.3,4c0,0.9-0.5,1.5-1.1,2.1c-8,8.1-8.8,16.8-2.5,26.1C136.9,59.3,138,60.3,137.5,61.8z"/>
	<path class="st9" d="M105.8,58.7c-0.4,1.6-0.9,3.3-1.3,4.9c-5.3-0.3-7.8-4.1-9.6-8.2c-3.7-8.7-4.2-17.9-4.2-27.2
		c0-2.1,0.8-3.6,3.2-3.6c2.8,0,2.6,2,2.5,3.8C96.4,35.2,96.5,42,98,48.7C99.1,53.3,101.1,57,105.8,58.7z"/>
	<path class="st10" d="M40.6,48.9c0.2,2.3,3,2.1,3.7,3.9c-2.6,6.2-5.2,12.5-7.7,18.7c-1.4,3.3-3.5,3-4.9,0.5
		c-2.5-4.5-4.9-9.2-6-14.4c3.3-1,3.3-1,4.5,3.3c1.8-0.2,1.1-2.2,2.1-3c0.4,1.3,0.7,2.7,2.1,3.7C37.6,57.9,37.8,52.7,40.6,48.9z"/>
	<path class="st11" d="M74.9,81.1c-3.2,0-6.3,0.1-9.5,0c-1.9-0.1-3-1.1-2.9-3.2c0.1-2,1.4-2.5,3-2.5c6.2,0,12.3,0,18.5,0
		c2.1,0,3.2,0.7,3.1,2.9c-0.1,2.1-1.3,2.9-3.3,2.9C80.9,81.1,77.9,81.1,74.9,81.1C74.9,81.1,74.9,81.1,74.9,81.1z"/>
	<path class="st12" d="M140.3,80.8c-2.5,0-5,0-7.5,0c-2,0-3.2-0.8-3.1-2.9c0.1-1.7,0.9-2.7,2.8-2.7c5,0,10,0,14.9,0c2,0,3,0.9,3,3
		c0,2.4-1.4,2.6-3.3,2.6C144.9,80.8,142.6,80.8,140.3,80.8C140.3,80.8,140.3,80.8,140.3,80.8z"/>
</g>
</svg>
